# xmcd
#
# Track frame offsets: 
#        150
#        15480
#        28522
#        44386
#        62370
#        77308
#        93689
#        109864
#        126797
#        141869
#        160237
#
# Disc length: 2376 seconds
#
# Revision: 0
# Processed by: cddbd v1.5.2PL0 Copyright (c) Steve Scherf et al.
# Submitted via: ExactAudioCopy v1.0b1
#
DISCID=8209460b
DTITLE=John Stone - Boy From Alabama
DYEAR=2010
DGENRE=Country
TTITLE0=Boy From Alabama
TTITLE1=Mama And Budweiser
TTITLE2=If I Could Get Close To You
TTITLE3=Im Gonna Love You
TTITLE4=Going For Broke
TTITLE5=We All Feel The Pain
TTITLE6=Wayfaring Stranger
TTITLE7=That Girl Is Bad
TTITLE8=My Memory Is Just Too Good
TTITLE9=Where Have The Goodtimes Gone
TTITLE10=I Bleed Country
EXTD=
EXTT0=
EXTT1=
EXTT2=
EXTT3=
EXTT4=
EXTT5=
EXTT6=
EXTT7=
EXTT8=
EXTT9=
EXTT10=
PLAYORDER=
